<svg width="24" height="24" viewBox="0 0 24 24" fill="none" xmlns="http://www.w3.org/2000/svg">
<path d="M22 18.3636C22 18.8458 21.8084 19.3083 21.4675 19.6493C21.1265 19.9903 20.664 20.1818 20.1818 20.1818H3.81818C3.33597 20.1818 2.87351 19.9903 2.53253 19.6493C2.19156 19.3083 2 18.8458 2 18.3636V8.36363C2 7.88142 2.19156 7.41896 2.53253 7.07798C2.87351 6.73701 3.33597 6.54545 3.81818 6.54545H7.45455L9.27273 3.81818H14.7273L16.5455 6.54545H20.1818C20.664 6.54545 21.1265 6.73701 21.4675 7.07798C21.8084 7.41896 22 7.88142 22 8.36363V18.3636Z" stroke="#09090B" stroke-linecap="round" stroke-linejoin="round"/>
<path d="M12 16.5454C14.0083 16.5454 15.6364 14.9174 15.6364 12.9091C15.6364 10.9008 14.0083 9.27272 12 9.27272C9.99169 9.27272 8.36364 10.9008 8.36364 12.9091C8.36364 14.9174 9.99169 16.5454 12 16.5454Z" stroke="#09090B" stroke-linecap="round" stroke-linejoin="round"/>
</svg>
