<svg width="24" height="24" viewBox="0 0 24 24" fill="none" xmlns="http://www.w3.org/2000/svg">
<path d="M11.5 20.4667C9.77272 20.4667 8.08422 19.9545 6.64803 18.9948C5.21184 18.0352 4.09247 16.6712 3.43146 15.0754C2.77046 13.4796 2.59751 11.7237 2.93448 10.0295C3.27146 8.33545 4.10323 6.77932 5.32461 5.55794C6.54599 4.33656 8.10212 3.50479 9.79622 3.16781C11.4903 2.83083 13.2463 3.00378 14.8421 3.66479C16.4379 4.32579 17.8019 5.44517 18.7615 6.88136C19.7211 8.31755 20.2333 10.006 20.2333 11.7333C20.2333 13.1772 19.884 14.5387 19.263 15.7381L20.2333 20.4667L15.5047 19.4963C14.3054 20.1173 12.943 20.4667 11.5 20.4667Z" stroke="#09090B" stroke-linecap="round" stroke-linejoin="round"/>
</svg>
