<svg width="190" height="189" viewBox="0 0 190 189" fill="none" xmlns="http://www.w3.org/2000/svg">
<path fill-rule="evenodd" clip-rule="evenodd" d="M132.28 181.44C120.76 186.24 108.36 188.64 95.0802 188.64V147.84C102.44 147.84 109.24 146.48 115.48 143.76C121.56 141.04 126.92 137.36 131.56 132.72C136.04 127.92 139.56 122.24 142.12 115.68C144.68 109.12 145.96 102 145.96 94.32C145.96 86.64 144.68 79.52 142.12 72.96C139.56 66.4 136.04 60.8 131.56 56.16C126.92 51.36 121.56 47.6 115.48 44.88C109.24 42.16 102.44 40.8 95.0802 40.8V0C108.36 0 120.76 2.48 132.28 7.44C143.8 12.24 153.8 18.88 162.28 27.36C170.6 35.84 177.16 45.84 181.96 57.36C186.76 68.88 189.16 81.2 189.16 94.32C189.16 107.6 186.76 120 181.96 131.52C177.16 142.88 170.6 152.8 162.28 161.28C153.8 169.76 143.8 176.48 132.28 181.44Z" fill="#FC312E"/>
<path d="M56.8801 7.44C68.4001 2.48 80.8002 1.87356e-10 94.0802 1.87356e-10V40.8C86.7202 40.8 80.0002 42.16 73.9202 44.88C67.6802 47.6 62.3201 51.36 57.8401 56.16C53.2002 60.8 49.6002 66.4 47.0402 72.96C44.4802 79.52 43.2002 86.64 43.2002 94.32C43.2002 102 44.4802 109.12 47.0402 115.68C49.6002 122.24 53.2002 127.92 57.8401 132.72C62.3201 137.36 67.6802 141.04 73.9202 143.76C80.0002 146.48 86.7202 147.84 94.0802 147.84V188.64C80.8002 188.64 68.4001 186.24 56.8801 181.44C45.3601 176.48 35.4401 169.76 27.1201 161.28C18.6401 152.8 12.0001 142.88 7.20013 131.52C2.40014 120 0.00012207 107.6 0.00012207 94.32C0.00012207 81.2 2.40014 68.88 7.20013 57.36C12.0001 45.84 18.6401 35.84 27.1201 27.36C35.4401 18.88 45.3601 12.24 56.8801 7.44Z" fill="#FC312E"/>
<path fill-rule="evenodd" clip-rule="evenodd" d="M60.8608 138L94.1602 188.81C62.9832 189.182 49.1761 188.937 26.1939 188.812C17.8557 188.766 12.3903 188.736 11.491 188.757C8.1131 188.836 4.04077 186.183 8.85199 180.774C13.6632 175.366 60.8608 138 60.8608 138Z" fill="#FC312E"/>
<path d="M95.0802 147.84V188.64H94.0802V147.84H95.0802Z" fill="#FC312E"/>
<path d="M95.0802 0V40.8H94.0802V1.87356e-10L95.0802 0Z" fill="#FC312E"/>
<path d="M95.0802 40.8C102.44 40.8 109.24 42.16 115.48 44.88C121.56 47.6 126.92 51.36 131.56 56.16C136.04 60.8 139.56 66.4 142.12 72.96C144.68 79.52 145.96 86.64 145.96 94.32C145.96 102 144.68 109.12 142.12 115.68C139.56 122.24 136.04 127.92 131.56 132.72C126.92 137.36 121.56 141.04 115.48 143.76C109.24 146.48 102.44 147.84 95.0802 147.84H94.0802C86.7202 147.84 80.0002 146.48 73.9202 143.76C67.6802 141.04 62.3201 137.36 57.8401 132.72C53.2002 127.92 49.6002 122.24 47.0402 115.68C44.4802 109.12 43.2002 102 43.2002 94.32C43.2002 86.64 44.4802 79.52 47.0402 72.96C49.6002 66.4 53.2002 60.8 57.8401 56.16C62.3201 51.36 67.6802 47.6 73.9202 44.88C80.0002 42.16 86.7202 40.8 94.0802 40.8H95.0802Z" fill="#FC312E"/>
</svg>
