<svg width="24" height="24" viewBox="0 0 24 24" fill="none" xmlns="http://www.w3.org/2000/svg">
<path d="M5.5 9.61115C5.5 9.37295 5.5 9.25386 5.5501 9.15053C5.60021 9.0472 5.69372 8.97345 5.88075 8.82595L11.3807 4.48837C11.678 4.25398 11.8266 4.13678 12 4.13679C12.1734 4.13679 12.322 4.25398 12.6192 4.48838L18.1191 8.82595C18.3062 8.97345 18.3997 9.0472 18.4498 9.15053C18.4999 9.25386 18.4999 9.37295 18.4999 9.61114V18.5C18.4999 18.9714 18.4999 19.2071 18.3534 19.3536C18.207 19.5 17.9713 19.5 17.4999 19.5H6.5C6.0286 19.5 5.79289 19.5 5.64645 19.3536C5.5 19.2071 5.5 18.9714 5.5 18.5V9.61115Z" stroke="#09090B"/>
<path d="M14.5 19V14H9.5V19" stroke="#09090B" stroke-linecap="round" stroke-linejoin="round"/>
</svg>
