<svg width="180" height="65" viewBox="0 0 180 65" fill="none" xmlns="http://www.w3.org/2000/svg">
<path d="M15.5856 25.7641V57H4.59162V8.23833H16.879L38.3497 39.3449H38.479V8.23833H49.4731V57H37.1856L15.715 25.7641H15.5856ZM77.6023 58.0347C74.0238 58.0347 70.6825 57.388 67.5783 56.0946C64.4741 54.7581 61.7795 52.9473 59.4945 50.6623C57.2526 48.3772 55.4849 45.7042 54.1915 42.6431C52.8981 39.5389 52.2514 36.1976 52.2514 32.6192C52.2514 29.0838 52.8981 25.7641 54.1915 22.6599C55.4849 19.5557 57.2526 16.8611 59.4945 14.576C61.7795 12.291 64.4741 10.5018 67.5783 9.20839C70.6825 7.87186 74.0238 7.20359 77.6023 7.20359C81.1807 7.20359 84.522 7.87186 87.6262 9.20839C90.7304 10.5018 93.4035 12.291 95.6454 14.576C97.9304 16.8611 99.7196 19.5557 101.013 22.6599C102.306 25.7641 102.953 29.0838 102.953 32.6192C102.953 36.1976 102.306 39.5389 101.013 42.6431C99.7196 45.7042 97.9304 48.3772 95.6454 50.6623C93.4035 52.9473 90.7304 54.7581 87.6262 56.0946C84.522 57.388 81.1807 58.0347 77.6023 58.0347ZM77.6023 47.0407C79.5855 47.0407 81.3963 46.6743 83.0346 45.9413C84.716 45.2084 86.1603 44.2168 87.3675 42.9665C88.6178 41.6731 89.5879 40.1425 90.2777 38.3749C90.9675 36.6072 91.3124 34.6886 91.3124 32.6192C91.3124 30.5497 90.9675 28.6311 90.2777 26.8635C89.5879 25.0958 88.6178 23.5868 87.3675 22.3365C86.1603 21.0431 84.716 20.0299 83.0346 19.297C81.3963 18.5641 79.5855 18.1976 77.6023 18.1976C75.619 18.1976 73.7867 18.5641 72.1053 19.297C70.4669 20.0299 69.0226 21.0431 67.7723 22.3365C66.5651 23.5868 65.6166 25.0958 64.9268 26.8635C64.237 28.6311 63.8921 30.5497 63.8921 32.6192C63.8921 34.6886 64.237 36.6072 64.9268 38.3749C65.6166 40.1425 66.5651 41.6731 67.7723 42.9665C69.0226 44.2168 70.4669 45.2084 72.1053 45.9413C73.7867 46.6743 75.619 47.0407 77.6023 47.0407ZM120.518 8.23833C124.614 8.23833 128.193 8.86348 131.254 10.1138C134.315 11.3641 136.945 13.0886 139.143 15.2874C141.385 17.5293 143.11 20.1162 144.317 23.0479C145.567 25.9796 146.193 29.1701 146.193 32.6192C146.193 36.0683 145.567 39.2587 144.317 42.1904C143.11 45.1222 141.385 47.709 139.143 49.9509C136.945 52.1497 134.315 53.8743 131.254 55.1246C128.193 56.3749 124.614 57 120.518 57H105.773V8.23833H120.518ZM119.548 46.3293C122.178 46.3293 124.377 45.9844 126.145 45.2946C127.912 44.6048 129.421 43.6347 130.672 42.3844C131.879 41.1772 132.827 39.7545 133.517 38.1162C134.207 36.4347 134.552 34.6024 134.552 32.6192C134.552 30.6359 134.207 28.8252 133.517 27.1868C132.827 25.5054 131.879 24.0611 130.672 22.8539C129.421 21.6036 127.912 20.6335 126.145 19.9437C124.377 19.2539 122.178 18.909 119.548 18.909H117.026V46.3293H119.548ZM176.424 8.23833V18.5856H160.256V27.5102H176.101V37.5341H160.256V46.6527H176.424V57H149.133V8.23833H176.424Z" fill="#FC312E"/>
<path fill-rule="evenodd" clip-rule="evenodd" d="M67.8719 55.6278C70.9761 56.9212 74.3174 57.568 77.8958 57.568V46.5739C75.9126 46.5739 74.0802 46.2075 72.3988 45.4745C70.7605 44.7416 69.3162 43.75 68.0659 42.4997C66.8587 41.2063 65.9102 39.6757 65.2204 37.9081C64.5305 36.1404 64.1856 34.2218 64.1856 32.1524C64.1856 30.0829 64.5305 28.1644 65.2204 26.3967C65.9102 24.629 66.8587 23.1201 68.0659 21.8698C69.3162 20.5763 70.7605 19.5632 72.3988 18.8302C74.0802 18.0973 75.9126 17.7308 77.8958 17.7308V6.73682C74.3174 6.73682 70.9761 7.40508 67.8719 8.74161C64.7677 10.035 62.0731 11.8242 59.788 14.1093C57.5461 16.3943 55.7785 19.0889 54.485 22.1931C53.1916 25.2973 52.5449 28.6171 52.5449 32.1524C52.5449 35.7308 53.1916 39.0721 54.485 42.1763C55.7785 45.2374 57.5461 47.9105 59.788 50.1955C62.0731 52.4805 64.7677 54.2913 67.8719 55.6278Z" fill="#FC312E"/>
<path d="M88.1892 8.74161C85.085 7.40508 81.7437 6.73682 78.1653 6.73682V17.7308C80.1485 17.7308 81.9593 18.0973 83.5976 18.8302C85.2791 19.5632 86.7234 20.5763 87.9306 21.8698C89.1808 23.1201 90.1509 24.629 90.8407 26.3967C91.5305 28.1644 91.8754 30.0829 91.8754 32.1524C91.8754 34.2218 91.5305 36.1404 90.8407 37.9081C90.1509 39.6757 89.1808 41.2063 87.9306 42.4997C86.7234 43.75 85.2791 44.7416 83.5976 45.4745C81.9593 46.2075 80.1485 46.5739 78.1653 46.5739V57.568C81.7437 57.568 85.085 56.9212 88.1892 55.6278C91.2934 54.2913 93.9665 52.4805 96.2084 50.1955C98.4934 47.9105 100.283 45.2374 101.576 42.1763C102.869 39.0721 103.516 35.7308 103.516 32.1524C103.516 28.6171 102.869 25.2973 101.576 22.1931C100.283 19.0889 98.4934 16.3943 96.2084 14.1093C93.9665 11.8242 91.2934 10.035 88.1892 8.74161Z" fill="#FC312E"/>
<path fill-rule="evenodd" clip-rule="evenodd" d="M87.1166 43.9224L78.1437 57.6138C86.5447 57.714 90.2652 57.648 96.458 57.6142C98.7048 57.6019 100.178 57.5939 100.42 57.5995C101.33 57.6207 102.427 56.9058 101.131 55.4485C99.8345 53.9911 87.1166 43.9224 87.1166 43.9224Z" fill="#FC312E"/>
<path d="M77.8958 46.5739V57.568H78.1653V46.5739H77.8958Z" fill="#FC312E"/>
<path d="M77.8958 6.73682V17.7308H78.1653V6.73682L77.8958 6.73682Z" fill="#FC312E"/>
<path d="M77.8958 17.7308C75.9126 17.7308 74.0802 18.0973 72.3988 18.8302C70.7605 19.5632 69.3162 20.5763 68.0659 21.8698C66.8587 23.1201 65.9102 24.629 65.2204 26.3967C64.5305 28.1644 64.1856 30.0829 64.1856 32.1524C64.1856 34.2218 64.5305 36.1404 65.2204 37.9081C65.9102 39.6757 66.8587 41.2063 68.0659 42.4997C69.3162 43.75 70.7605 44.7416 72.3988 45.4745C74.0802 46.2075 75.9126 46.5739 77.8958 46.5739H78.1653C80.1485 46.5739 81.9593 46.2075 83.5976 45.4745C85.2791 44.7416 86.7234 43.75 87.9306 42.4997C89.1808 41.2063 90.1509 39.6757 90.8407 37.9081C91.5305 36.1404 91.8754 34.2218 91.8754 32.1524C91.8754 30.0829 91.5305 28.1644 90.8407 26.3967C90.1509 24.629 89.1808 23.1201 87.9306 21.8698C86.7234 20.5763 85.2791 19.5632 83.5976 18.8302C81.9593 18.0973 80.1485 17.7308 78.1653 17.7308H77.8958Z" fill="#FC312E"/>
</svg>
