<svg width="789" height="240" viewBox="0 0 789 240" fill="none" xmlns="http://www.w3.org/2000/svg">
<path d="M57.84 94.08V210H17.04V29.04H62.64L142.32 144.48H142.8V29.04H183.6V210H138L58.32 94.08H57.84ZM287.991 213.84C274.711 213.84 262.311 211.44 250.791 206.64C239.271 201.68 229.271 194.96 220.791 186.48C212.471 178 205.911 168.08 201.111 156.72C196.311 145.2 193.911 132.8 193.911 119.52C193.911 106.4 196.311 94.08 201.111 82.56C205.911 71.04 212.471 61.04 220.791 52.56C229.271 44.08 239.271 37.44 250.791 32.64C262.311 27.68 274.711 25.2 287.991 25.2C301.271 25.2 313.671 27.68 325.191 32.64C336.711 37.44 346.631 44.08 354.951 52.56C363.431 61.04 370.071 71.04 374.871 82.56C379.671 94.08 382.071 106.4 382.071 119.52C382.071 132.8 379.671 145.2 374.871 156.72C370.071 168.08 363.431 178 354.951 186.48C346.631 194.96 336.711 201.68 325.191 206.64C313.671 211.44 301.271 213.84 287.991 213.84ZM287.991 173.04C295.351 173.04 302.071 171.68 308.151 168.96C314.391 166.24 319.751 162.56 324.231 157.92C328.871 153.12 332.471 147.44 335.031 140.88C337.591 134.32 338.871 127.2 338.871 119.52C338.871 111.84 337.591 104.72 335.031 98.16C332.471 91.6 328.871 86 324.231 81.36C319.751 76.56 314.391 72.8 308.151 70.08C302.071 67.36 295.351 66 287.991 66C280.631 66 273.831 67.36 267.591 70.08C261.511 72.8 256.151 76.56 251.511 81.36C247.031 86 243.511 91.6 240.951 98.16C238.391 104.72 237.111 111.84 237.111 119.52C237.111 127.2 238.391 134.32 240.951 140.88C243.511 147.44 247.031 153.12 251.511 157.92C256.151 162.56 261.511 166.24 267.591 168.96C273.831 171.68 280.631 173.04 287.991 173.04Z" fill="#FC312E"/>
<path d="M409.566 213.84C396.286 213.84 383.886 211.44 372.366 206.64C360.846 201.68 350.846 194.96 342.366 186.48C334.046 178 327.486 168.08 322.686 156.72C317.886 145.2 315.486 132.8 315.486 119.52C315.486 106.4 317.886 94.08 322.686 82.56C327.486 71.04 334.046 61.04 342.366 52.56C350.846 44.08 360.846 37.44 372.366 32.64C383.886 27.68 396.286 25.2 409.566 25.2C422.846 25.2 435.246 27.68 446.766 32.64C458.286 37.44 468.206 44.08 476.526 52.56C485.006 61.04 491.646 71.04 496.446 82.56C501.246 94.08 503.646 106.4 503.646 119.52C503.646 132.8 501.246 145.2 496.446 156.72C491.646 168.08 485.006 178 476.526 186.48C468.206 194.96 458.286 201.68 446.766 206.64C435.246 211.44 422.846 213.84 409.566 213.84ZM409.566 173.04C416.926 173.04 423.646 171.68 429.726 168.96C435.966 166.24 441.326 162.56 445.806 157.92C450.446 153.12 454.046 147.44 456.606 140.88C459.166 134.32 460.446 127.2 460.446 119.52C460.446 111.84 459.166 104.72 456.606 98.16C454.046 91.6 450.446 86 445.806 81.36C441.326 76.56 435.966 72.8 429.726 70.08C423.646 67.36 416.926 66 409.566 66C402.206 66 395.406 67.36 389.166 70.08C383.086 72.8 377.726 76.56 373.086 81.36C368.606 86 365.086 91.6 362.526 98.16C359.966 104.72 358.686 111.84 358.686 119.52C358.686 127.2 359.966 134.32 362.526 140.88C365.086 147.44 368.606 153.12 373.086 157.92C377.726 162.56 383.086 166.24 389.166 168.96C395.406 171.68 402.206 173.04 409.566 173.04ZM568.832 29.04C584.032 29.04 597.312 31.36 608.672 36C620.032 40.64 629.792 47.04 637.952 55.2C646.272 63.52 652.672 73.12 657.152 84C661.792 94.88 664.112 106.72 664.112 119.52C664.112 132.32 661.792 144.16 657.152 155.04C652.672 165.92 646.272 175.52 637.952 183.84C629.792 192 620.032 198.4 608.672 203.04C597.312 207.68 584.032 210 568.832 210H514.112V29.04H568.832ZM565.232 170.4C574.992 170.4 583.152 169.12 589.712 166.56C596.272 164 601.872 160.4 606.512 155.76C610.992 151.28 614.512 146 617.072 139.92C619.632 133.68 620.912 126.88 620.912 119.52C620.912 112.16 619.632 105.44 617.072 99.36C614.512 93.12 610.992 87.76 606.512 83.28C601.872 78.64 596.272 75.04 589.712 72.48C583.152 69.92 574.992 68.64 565.232 68.64H555.872V170.4H565.232ZM776.304 29.04V67.44H716.304V100.56H775.104V137.76H716.304V171.6H776.304V210H675.024V29.04H776.304Z" fill="#FC312E"/>
<path fill-rule="evenodd" clip-rule="evenodd" d="M446.28 206.44C434.76 211.24 422.36 213.64 409.08 213.64V172.84C416.44 172.84 423.24 171.48 429.48 168.76C435.56 166.04 440.92 162.36 445.56 157.72C450.04 152.92 453.56 147.24 456.12 140.68C458.68 134.12 459.96 127 459.96 119.32C459.96 111.64 458.68 104.52 456.12 97.96C453.56 91.4 450.04 85.8 445.56 81.16C440.92 76.36 435.56 72.6 429.48 69.88C423.24 67.16 416.44 65.8 409.08 65.8V25C422.36 25 434.76 27.48 446.28 32.44C457.8 37.24 467.8 43.88 476.28 52.36C484.6 60.84 491.16 70.84 495.96 82.36C500.76 93.88 503.16 106.2 503.16 119.32C503.16 132.6 500.76 145 495.96 156.52C491.16 167.88 484.6 177.8 476.28 186.28C467.8 194.76 457.8 201.48 446.28 206.44Z" fill="#FC312E"/>
<path d="M250.88 32.44C262.4 27.48 274.8 25 288.08 25V65.8C280.72 65.8 274 67.16 267.92 69.88C261.68 72.6 256.32 76.36 251.84 81.16C247.2 85.8 243.6 91.4 241.04 97.96C238.48 104.52 237.2 111.64 237.2 119.32C237.2 127 238.48 134.12 241.04 140.68C243.6 147.24 247.2 152.92 251.84 157.72C256.32 162.36 261.68 166.04 267.92 168.76C274 171.48 280.72 172.84 288.08 172.84V213.64C274.8 213.64 262.4 211.24 250.88 206.44C239.36 201.48 229.44 194.76 221.12 186.28C212.64 177.8 206 167.88 201.2 156.52C196.4 145 194 132.6 194 119.32C194 106.2 196.4 93.88 201.2 82.36C206 70.84 212.64 60.84 221.12 52.36C229.44 43.88 239.36 37.24 250.88 32.44Z" fill="#FC312E"/>
<path fill-rule="evenodd" clip-rule="evenodd" d="M254.861 163L288.16 213.81C256.983 214.182 243.176 213.937 220.194 213.812C211.856 213.766 206.39 213.736 205.491 213.757C202.113 213.836 198.041 211.183 202.852 205.774C207.663 200.366 254.861 163 254.861 163Z" fill="#FC312E"/>
<path d="M409.08 172.84V213.64H288.08V172.84H409.08Z" fill="#FC312E"/>
<path d="M409.08 25V65.8H288.08V25L409.08 25Z" fill="#FC312E"/>
<path d="M409.08 65.8C416.44 65.8 423.24 67.16 429.48 69.88C435.56 72.6 440.92 76.36 445.56 81.16C450.04 85.8 453.56 91.4 456.12 97.96C458.68 104.52 459.96 111.64 459.96 119.32C459.96 127 458.68 134.12 456.12 140.68C453.56 147.24 450.04 152.92 445.56 157.72C440.92 162.36 435.56 166.04 429.48 168.76C423.24 171.48 416.44 172.84 409.08 172.84H288.08C280.72 172.84 274 171.48 267.92 168.76C261.68 166.04 256.32 162.36 251.84 157.72C247.2 152.92 243.6 147.24 241.04 140.68C238.48 134.12 237.2 127 237.2 119.32C237.2 111.64 238.48 104.52 241.04 97.96C243.6 91.4 247.2 85.8 251.84 81.16C256.32 76.36 261.68 72.6 267.92 69.88C274 67.16 280.72 65.8 288.08 65.8H409.08Z" fill="#FC312E"/>
</svg>
