<svg width="24" height="24" viewBox="0 0 24 24" fill="none" xmlns="http://www.w3.org/2000/svg">
<path d="M14.536 21.686C14.574 21.7807 14.64 21.8615 14.7253 21.9175C14.8105 21.9736 14.9109 22.0023 15.0128 21.9996C15.1148 21.997 15.2136 21.9633 15.2958 21.9029C15.3781 21.8426 15.4399 21.7585 15.473 21.662L21.973 2.662C22.005 2.57339 22.0111 2.4775 21.9906 2.38555C21.9701 2.2936 21.9238 2.20939 21.8572 2.14278C21.7906 2.07616 21.7064 2.02989 21.6144 2.00939C21.5225 1.98889 21.4266 1.99499 21.338 2.027L2.338 8.527C2.2415 8.56009 2.15743 8.62192 2.09707 8.70417C2.03672 8.78642 2.00297 8.88517 2.00036 8.98716C1.99775 9.08914 2.02639 9.18949 2.08246 9.27473C2.13852 9.35996 2.21932 9.42601 2.314 9.464L10.244 12.644C10.4947 12.7444 10.7225 12.8945 10.9136 13.0852C11.1047 13.276 11.2552 13.5035 11.356 13.754L14.536 21.686Z" stroke="#09090B" stroke-linecap="round" stroke-linejoin="round"/>
<path d="M21.854 2.147L10.914 13.086" stroke="#09090B" stroke-linecap="round" stroke-linejoin="round"/>
</svg>
